<?xml version="1.0" encoding="UTF-8" standalone="no"?>
<svg width="128" xmlns="http://www.w3.org/2000/svg" xmlns:xlink="http://www.w3.org/1999/xlink" height="128">
 <defs>
  <linearGradient id="linearGradient17207" y2=".64985" x2=".77774" y1="-.28807" x1="-2.1761">
   <stop id="stop14505" stop-color="#fff" offset="0"/>
   <stop id="stop14507" stop-color="#fff" stop-opacity="0" offset="1"/>
  </linearGradient>
  <linearGradient id="linearGradient17203" y2="-.067449" x2=".67798" y1="1.009" x1=".56377">
   <stop id="stop7303" stop-color="#d49c56" offset="0"/>
   <stop id="stop7305" stop-color="#d49c56" stop-opacity="0" offset="1"/>
  </linearGradient>
  <linearGradient id="linearGradient17199" y2="1.3799" x2=".45619" y1=".40073" x1=".49982">
   <stop id="stop10896" stop-color="#d49c56" offset="0"/>
   <stop id="stop10898" stop-color="#d49c56" stop-opacity=".258" offset="1"/>
  </linearGradient>
  <linearGradient id="linearGradient17195" y2="-.063107" x2=".46868" y1=".93204" x1=".46895">
   <stop id="stop11789" offset="0"/>
   <stop id="stop11791" stop-color="#747474" offset="1"/>
  </linearGradient>
  <radialGradient id="radialGradient17197" gradientUnits="userSpaceOnUse" cy="72.644" cx="-164.86" gradientTransform="matrix(.10380 .081452 -.21402 .27274 -132.2 63.745)" r="15.009">
   <stop id="stop17174" stop-color="#ffeed6" offset="0"/>
   <stop id="stop17176" stop-color="#ffcd8b" offset="1"/>
  </radialGradient>
  <radialGradient id="radialGradient17201" gradientUnits="userSpaceOnUse" cy="33.695" cx="-165.24" gradientTransform="matrix(.7193 -.017199 .035132 1.4693 -44.059 -19.6)" r="21.607">
   <stop id="stop13599" stop-color="#ffeed6" offset="0"/>
   <stop id="stop13601" stop-color="#ffcd8b" offset="1"/>
  </radialGradient>
 </defs>
 <g fill-rule="evenodd">
  <path id="path12688" fill="#7f0000" d="m89.504 38.9c1.8273-12.544-5.1044-29.561-24.364-29.93-24.992-0.47957-29.639 17.526-28.372 30.968 1.5434 16.371 49.525 21.004 52.736-1.0381z"/>
  <path id="path12692" fill="url(#linearGradient17195)" stroke="#000" d="m3.6013 118.62c2.7927-7.7114 4.0292-22.026 13.643-26.806l44.593-9.5409 46.574 8.8529c8.1954 2.9422 12.069 18.888 15.987 27.923-2.5522 1.8322-4.752 4.5456-7.7871 5.1707h-105.68c-3.4319-1.2735-5.1702-3.5631-7.3304-5.5996z"/>
  <path id="path12694" fill="url(#radialGradient17197)" stroke="url(#linearGradient17199)" d="m48.704 72.396c0.23771 5.7693-1.1298 9.0943-3.8326 13.984 10.524 19.343 37.8 9.3718 37.089-0.54528l-3.0181-16.493-30.238 3.0543z"/>
  <path id="path12696" fill="url(#radialGradient17201)" stroke="url(#linearGradient17203)" d="m87.177 41.413c-0.58197 9.1189-0.8372 20.238-2.8796 29.357 0 0-9.2868 8.4414-14.47 10.742-5.1835 2.301-6.6342 1.989-11.519-0.071983-4.8844-2.061-16.198-10.095-16.198-10.095-4.8626-19.716-6.5261-40.38 15.118-51.386l6.4084 7.6109c2.3711 2.816 12.782 7.194 16.715 3.4392 3.104-2.9635 4.9992 7.9036 6.8254 10.403z"/>
  <path id="path13605" fill="url(#linearGradient17207)" d="m40.985 42.976c-0.80594 9.1404 0.52962 17.872 2.5538 27.198 5.5787 4.5072 9.8074 10.453 21.452 8.0741 3.9872-0.90865 2.5088-2.8146 4.7988-3.9657-13.766 4.0898-16.011 1.1977-23.106-7.13l-4.6841-27.223-1.0141 3.0462z"/>
 </g>
 <g stroke-dasharray="null">
  <g stroke-linejoin="null" stroke-linecap="null">
   <path id="svg_6" fill="#fff" stroke="#000" d="m69 91s-13 0.33334-13.333 0c-0.33334-0.33334-11.333 11.333-11.667 11-0.33333-0.33334 14 22 16.333 22 2.3333 0 0.66667-0.33331 4.3333-0.66665 3.6667-0.33335 17.667-25 17.667-25l-13.333-7.3333z"/>
   <path id="svg_10" stroke-width="NaN" fill="#f00" d="m58 101s-7.3333 10-7.6667 10c-0.33334 0 8.6667 12.667 8.3333 12.667h5.3333c-0.33334 0 7.6667-12.333 7.6667-12.333s-5-11-5.3333-11c-0.33333 0-8.3333 0.66666-8.3333 0.66666z"/>
  </g>
  <path id="svg_2" d="m43.36 83.667l-15.146 5-1.8812 13 11.996 0.3333-5.0306 7 26.701 15s-16.64-40.333-16.64-40.333z"/>
  <path id="svg_3" d="m83.927 83.667l18.491 5 2.5824 13-14.847 0.3333 6.2261 7-33.046 15 20.594-40.333z"/>
  <g stroke-linejoin="null" stroke-linecap="null">
   <g stroke="#000" fill="#fff">
    <path id="svg_4" d="m43.333 84l3-4.3333 14 11.333-10.667 10-6.3333-17z"/>
    <path id="svg_5" d="m83.833 83.833l-3.0588-4.3333-14.274 11.333 10.876 10 6.4575-17z"/>
   </g>
   <path id="svg_8" fill="#f00" stroke="#f00" d="m59.667 91s-5 6-5.3333 6c-0.33334 0 4.3333 4.3333 4 4-0.33334-0.33334 9.3333 0 9.3333 0s4.3333-4.6667 4.3333-4.6667-5.6667-5.6667-6-5.6667c-0.33334 0-6.3333 0.33334-6.3333 0.33334z"/>
   <path id="svg_15" stroke-width="NaN" d="m58.667 106.67s4-6 3.6667-6c-0.33334 0 3.6667 6 3.3333 6-0.33334 0-3.6667-3-3.6667-3l-3.3333 3z"/>
  </g>
 </g>
</svg>
