<?xml version="1.0" encoding="UTF-8" standalone="no"?>
<svg
   xmlns:dc="http://purl.org/dc/elements/1.1/"
   xmlns:cc="http://creativecommons.org/ns#"
   xmlns:rdf="http://www.w3.org/1999/02/22-rdf-syntax-ns#"
   xmlns:svg="http://www.w3.org/2000/svg"
   xmlns="http://www.w3.org/2000/svg"
   xmlns:sodipodi="http://sodipodi.sourceforge.net/DTD/sodipodi-0.dtd"
   xmlns:inkscape="http://www.inkscape.org/namespaces/inkscape"
   version="1.0"
   width="290"
   height="262"
   viewBox="-0.4 -0.4 290 262"
   id="svg2"
   xml:space="preserve"
   inkscape:version="0.48.4 r9939"
   sodipodi:docname="wa-blue.svg"><metadata
     id="metadata3011"><rdf:RDF><cc:Work
         rdf:about=""><dc:format>image/svg+xml</dc:format><dc:type
           rdf:resource="http://purl.org/dc/dcmitype/StillImage" /><dc:title></dc:title></cc:Work></rdf:RDF></metadata><sodipodi:namedview
     pagecolor="#ffffff"
     bordercolor="#666666"
     borderopacity="1"
     objecttolerance="10"
     gridtolerance="10"
     guidetolerance="10"
     inkscape:pageopacity="0"
     inkscape:pageshadow="2"
     inkscape:window-width="925"
     inkscape:window-height="1027"
     id="namedview3009"
     showgrid="false"
     inkscape:zoom="2"
     inkscape:cx="145"
     inkscape:cy="211"
     inkscape:window-x="65"
     inkscape:window-y="24"
     inkscape:window-maximized="0"
     inkscape:current-layer="g2987" /><defs
     id="defs4" /><g
     id="g2987"
     style="fill:#d3d3d3;stroke:#000000;stroke-width:0.5"><path
       id="NSW"
       d="m 271.2875,129.6 -0.875,0.625 -0.65625,0.625 -1.09375,0.0937 -0.90625,0.0937 -0.0937,0.75 0.28125,1.0625 0.71875,-0.0625 -0.65625,0.78125 -0.125,0.5625 -1.03125,0.46875 -0.78125,-0.28125 -0.40625,-0.6875 -0.65625,0.78125 -0.65625,0.8125 -0.3125,0.5625 -0.6875,0.4375 -0.46875,-1.0625 -0.0625,-0.71875 -0.4375,-0.6875 -0.40625,-0.5 -0.65625,-0.84375 -1.125,-0.25 -1.625,-0.0312 -0.59375,-0.3125 -0.75,-0.28125 -0.71875,0.0625 -0.21875,-0.53125 -0.90625,0.0937 -1.4375,0.5 -1.28125,-0.21875 -1.3125,-0.40625 -0.5625,0.0312 -0.78125,1.1875 -1.09375,-0.0937 -0.0937,1.125 -0.71875,0.0625 0.0625,0.53125 -0.875,0.46875 -53.125,-0.0625 0,45.0625 0,0.0312 0.0625,0.21875 1.125,-0.1875 1.84375,0.875 1.03125,-0.71875 1.75,0.28125 2.125,0.25 1.71875,1.4375 0.5,2.03125 1.09375,0.96875 0.0312,-0.96875 1.0625,-0.53125 0.96875,0.21875 1.71875,0.125 1,0.40625 0.625,2.75 1.4375,2.0625 1.125,0.0312 1.625,0.6875 1.96875,1.78125 0.375,1.28125 1.28125,0.9375 1.625,0.6875 1.3125,-0.1875 -0.25,-1.46875 0.5,-0.65625 0.71875,-0.0937 0.84375,0.4375 1.84375,-0.28125 1.4375,0.71875 0.90625,-0.125 1.21875,0.5625 1.1875,0.21875 0.65625,-0.6875 0.875,-0.3125 1.0625,0.59375 1.9375,0.46875 1.46875,-0.40625 1.0625,-0.34375 0.75,-0.125 0.71875,-0.28125 0.90625,-0.34375 1.40625,0.75 -0.1875,1.15625 0.5625,1.21875 0.71875,1.03125 0.34375,1.09375 -0.15625,1.34375 8.1875,4.0625 1.71875,0.125 0.71875,0.65625 0.65625,0 -0.15625,0.4375 0.125,0.0937 1.09375,-0.53125 -0.21875,-1.71875 0.4375,-0.21875 0.4375,0 -0.4375,-1.0625 -0.84375,-0.21875 0.40625,-0.84375 -0.40625,-1.0625 0.40625,0.21875 0.4375,-1.5 0.84375,-3.40625 -0.21875,-2.125 0.4375,-1.28125 -0.4375,0 1.0625,-0.84375 -0.625,-0.84375 0.84375,0.1875 1.71875,-4.03125 1.46875,-0.4375 -0.625,-1.28125 0.625,-0.1875 0,0.84375 0.4375,-0.21875 -0.4375,-1.28125 -0.40625,0.21875 0.21875,-0.4375 -0.875,-0.1875 1.5,-0.65625 0.4375,-1.5 -0.4375,-0.625 0.65625,-0.21875 0,-1.5 1.6875,-1.6875 -0.625,-0.21875 1.0625,-0.21875 -1.28125,-0.40625 1.46875,-0.21875 0.21875,-1.0625 -0.625,0.40625 -0.4375,-0.40625 0.65625,0.21875 -0.21875,-0.65625 0.625,0.4375 0.21875,-1.71875 0,-0.21875 -0.4375,0.4375 0,-0.625 -0.1875,0.1875 -0.21875,-0.625 0.625,0.4375 0.21875,-1.0625 0,0.84375 0.84375,-0.4375 0.21875,-1.0625 -0.40625,-0.40625 0.84375,0 0.625,-1.71875 -0.625,0.84375 -0.21875,-0.84375 0.625,0 0,-0.84375 0.21875,0.84375 0.875,-1.5 -0.21875,-0.40625 0.40625,0 0,0.625 2.5625,-1.5 -0.84375,-0.1875 -0.84375,0.625 -0.21875,-0.21875 0.40625,-0.40625 -0.1875,-0.4375 0.84375,0.4375 0.625,-0.4375 0.21875,0.4375 0.84375,-1.28125 1.5,-0.875 0.21875,-1.6875 -0.65625,-0.21875 0,0.4375 -0.84375,-0.4375 0.84375,0 0.21875,0 0.21875,-1.5 1.5,-1.25 1.90625,-6.1875 -0.21875,-4.25 1.5,-3.84375 0.21875,-0.65625 0.625,-3.59375 -0.625,-0.4375 0.625,0.21875 -0.1875,-0.84375 1.6875,-3.21875 -0.4375,0 0.4375,-0.1875 0.21875,-1.71875 -0.65625,-0.84375 0.1875,-1.90625 -0.96875,0.0312 -0.90625,-0.0937 -0.53125,0.40625 -0.5,0.21875 -0.5625,0.0625 -0.9375,-0.28125 -1.03125,0.46875 -0.8125,-0.8125 -0.9375,-0.28125 z m -25.34375,56.25 c 0.45735,-0.0183 0.9438,0.0521 1.375,0.25 0.36984,0.16974 0.49212,0.41964 0.46875,0.6875 -0.0234,0.26786 -0.22417,0.55024 -0.4375,0.875 -0.42667,0.6495 -1.00155,1.37043 -0.96875,2 -0.0767,0.34535 -0.43732,1.09261 -0.9375,1.1875 -0.25009,0.0474 -0.54888,-0.0682 -0.84375,-0.46875 -0.29488,-0.4006 -0.60731,-1.08191 -0.90625,-2.1875 -0.1825,-0.67495 0.032,-1.24795 0.46875,-1.65625 0.43677,-0.4083 1.09522,-0.66005 1.78125,-0.6875 z"
       inkscape:connector-curvature="0"
       style="fill:#ffffff" /><g
       id="NT"
       style="fill:#ffffff"><path
         id="Melville-Island"
         d="m 125.184,12.525 2.129,1.278 2.13,-1.278 0.639,-1.064 0.64,0.212 0,-0.852 0.638,-0.212 -0.851,-1.278 -0.853,0 -0.212,-0.639 -0.639,0.852 0.426,1.065 -0.638,-1.491 -0.213,0.639 -0.426,-0.212 0,1.277 -0.213,-1.065 -0.213,0 -0.639,-0.212 -1.278,0.426 0.852,1.278 -0.852,-0.426 -0.213,-1.065 -0.426,0.426 0.213,0.213 -0.213,0 0,-0.213 0,-0.852 -1.491,-0.852 0.525,2.797 -0.737,0.185 0.425,-0.426 -0.425,0.213 0.425,-0.852 -0.425,-0.852 -1.491,1.065 0.852,0.426 -0.426,0 0,0.852 0.212,0.142 0,0.497 -0.212,-0.639 -0.213,0.426 -0.639,-0.426 0,0.852 -0.426,0 4.046,0.426 0.212,-0.641 z"
         inkscape:connector-curvature="0"
         style="fill:#ffffff" /><path
         id="NT-mainland"
         d="m 113.85,33.81875 0,83.53125 59.5625,0 0,-73.15625 -0.75,-1 -2.125,-0.65625 -2.78125,-1.90625 -0.625,0.21875 0.21875,0.4375 -1.0625,-0.4375 -0.65625,0.21875 0,-0.875 -2.34375,-1.0625 -0.84375,-1.6875 -3.40625,-2.125 -0.21875,0.21875 0,-0.4375 -0.625,0.21875 -1.0625,-1.0625 -0.4375,-1.5 1.28125,-0.4375 1.0625,-2.53125 1.28125,-0.65625 L 160.5375,27.85 161.6,25.50625 160.725,26.1625 160.31875,25.94375 160.1,24.0375 l 0.4375,0.1875 0.40625,-0.40625 -0.625,-0.21875 0.21875,-0.625 0.625,-0.4375 0.21875,0.625 0.625,-1.25 0.21875,1.0625 0.21875,-1.0625 0.625,0.1875 0.21875,-0.625 0.4375,1.0625 -0.4375,0.625 0.84375,-0.40625 0.65625,-1.28125 -0.65625,-0.65625 1.28125,0.21875 -1.28125,-1.46875 0.4375,0.1875 0.21875,-0.40625 0.4375,0.625 -0.21875,-0.84375 0.625,0 0.4375,-1.0625 -0.21875,-0.65625 0.4375,0 0,0.65625 1.28125,-1.5 -1.28125,-1.28125 -0.65625,0.4375 0.4375,0.40625 -0.65625,0 -0.84375,-1.90625 -0.4375,0 0.65625,-0.84375 -2.5625,1.90625 1.5,0.4375 -0.65625,1.28125 -0.625,0.40625 -0.84375,-0.1875 -0.4375,0.40625 0,-0.625 -0.4375,0 0.65625,-1.0625 -0.65625,0.1875 -0.1875,-0.40625 0.84375,-1.0625 -1.71875,0.84375 -0.21875,0.65625 -0.625,-0.4375 1.71875,-1.90625 -2.34375,1.25 -0.21875,-0.40625 -1.0625,0.21875 -1.0625,0.625 0.84375,0.4375 -1.28125,-0.21875 0.4375,0.625 -2.5625,-1.0625 -0.65625,-1.46875 -0.84375,1.0625 -2.5625,-0.65625 -0.625,1.28125 0.4375,-1.0625 L 148.6,13.6 l -0.4375,0.21875 -0.21875,-0.65625 -0.84375,0.65625 -0.625,-0.65625 0.625,-0.625 -0.84375,-0.21875 -1.90625,1.0625 0.1875,-0.84375 -0.40625,0.40625 -0.4375,-0.625 -0.625,0.40625 0.1875,-0.625 -1.25,0.21875 -1.5,-2.5625 -0.4375,0 0.21875,0.65625 -0.4375,-0.21875 -1.0625,0.84375 -1.46875,-2.125 -0.4375,0.625 -0.21875,-1.28125 -0.625,0.4375 0.21875,0.625 -1.09375,-1.0625 0.21875,1.28125 0.4375,0.21875 -0.4375,0.65625 -0.40625,-1.5 -0.875,-0.65625 0,0.875 -1.0625,-0.21875 0.21875,0.40625 -0.40625,0.4375 1.0625,-0.21875 0.1875,0.4375 -0.1875,0.21875 0.84375,0.21875 0.21875,0.625 0.84375,-0.4375 1.90625,-0.1875 0,0.40625 0.4375,0 -0.4375,0.21875 0.65625,0.21875 -0.4375,0 0.4375,0.21875 -0.4375,0.1875 1.0625,0 0.21875,0 -1.0625,1.0625 0.84375,0.65625 L 138.6,13.6 l -0.21875,1.28125 1.0625,0.40625 -1.46875,-0.40625 -0.65625,0.40625 -0.21875,1.28125 -0.40625,-1.0625 -0.65625,0.4375 -0.21875,-0.65625 -1.0625,1.0625 -1.0625,-0.625 -2.96875,0.40625 -0.84375,-0.625 -0.21875,-1.0625 -0.4375,1.28125 -1.6875,-0.4375 0.40625,1.5 -1.0625,-0.21875 -0.40625,0.4375 1.0625,0.84375 -0.875,-0.21875 0.40625,0.65625 -0.40625,0.40625 -0.40625,-0.84375 0,0.21875 -0.4375,0.21875 0.21875,-1.09375 -1.28125,-0.1875 0.21875,1.46875 -0.4375,0 1.28125,0.65625 -0.625,0 0,0.40625 -1.0625,-1.0625 -0.65625,0.21875 0.21875,0.4375 -0.4375,-0.4375 0,1.5 -1.46875,0.40625 0,1.5 1.25,1.5 -0.40625,-0.21875 -1.71875,1.28125 -0.625,-0.21875 0,-0.40625 -0.65625,0.40625 -0.1875,1.90625 0.40625,-0.1875 -0.84375,0.625 0.21875,1.0625 -0.65625,0.4375 -0.40625,-0.4375 0.40625,1.0625 -0.40625,-0.40625 -0.4375,0.84375 -0.21875,-0.65625 -0.84375,1.5 0,0.65625 0.625,0.625 0.4375,-0.4375 0,0.65625 0.84375,-0.21875 0.21875,0.4375 0.84375,-0.4375 -0.1875,0.4375 -1.0625,0.625 0.625,0 0,0.4375 -0.21875,0 0.15625,0.28125 0.15625,0.0625 0.53125,-0.34375 -0.1875,0.625 1.46875,-0.84375 0,0.625 -0.84375,0 0.4375,0.4375 L 119.85,33.6 l -0.40625,0 -0.875,0 0.4375,0.84375 -0.4375,-0.40625 0.21875,1.5 -0.625,0.1875 -0.65625,-1.46875 -0.625,-0.21875 0.21875,1.0625 -0.875,-1.28125 0.21875,0.4375 -0.40625,0 -0.21875,0 0.40625,0.625 -0.40625,0.4375 0.625,0.21875 -0.625,0 -0.21875,0.84375 0,-0.65625 -0.4375,0.875 0.4375,-1.0625 -0.21875,-0.21875 -0.4375,-0.4375 0,-0.84375 -0.40625,0.625 0,-0.84375 -0.6875,0 z"
         inkscape:connector-curvature="0"
         style="fill:#ffffff" /><path
         id="Groote-Eyland"
         d="m 163.943,29.137 1.49,0.852 1.917,0 -0.213,-1.065 -0.214,0.426 -1.063,-0.213 0,-0.851 0.638,-0.214 -0.213,-0.638 1.065,-0.852 -0.64,-0.427 0,0.639 -0.85,0 -0.214,-0.852 0.214,-0.425 -1.067,0.212 0.427,0.64 -1.49,0.425 0,1.065 0.213,0.852 -0.64,0.852 0.64,-0.426 z"
         inkscape:connector-curvature="0"
         style="fill:#ffffff" /></g><g
       id="QLD"
       style="fill:#ffffff"><path
         id="QLD-mainland"
         d="m 204.81875,5.2875 -0.84375,0.21875 -0.65625,1.28125 -1.25,0.40625 0.1875,1.0625 -0.625,2.78125 -0.21875,0 -0.21875,1.5 0.65625,0 -0.84375,0.1875 -0.21875,1.28125 0.40625,0.65625 0.4375,-0.4375 -0.4375,0.65625 -0.40625,-0.21875 -0.21875,0.84375 -0.21875,-1.5 -1.0625,1.71875 0.625,0.21875 -0.625,0 -0.84375,2.125 0.625,0 -0.21875,-0.84375 0.65625,0.1875 -0.4375,0.21875 0.84375,0.65625 1.09375,0 -1.09375,0.40625 1.09375,0.4375 -0.4375,0.21875 0.21875,1.0625 -0.875,-1.5 -0.40625,1.0625 -1.0625,0.84375 0.625,1.9375 -0.21875,0.625 0.4375,-0.21875 -0.21875,0.21875 0.4375,0.21875 -0.84375,0 -1.09375,3.1875 1.09375,2.34375 -0.65625,2.125 0.84375,3.84375 -1.28125,3.40625 -0.625,2.5625 0.4375,1.0625 -1.5,4.25 -1.71875,2.125 -0.40625,2.78125 -1.9375,1.5 -3.59375,0.84375 -0.4375,-0.21875 -1.28125,-0.84375 -1.5,-0.21875 -0.84375,-1.0625 -1.5,-0.65625 L 182.25625,48.725 181.4125,47.88125 178.63125,47.0375 175.225,46.6 l -1.8125,-2.40625 0,73.15625 20.75,0 0,16.9375 53.125,0.0625 0.875,-0.46875 -0.0625,-0.53125 0.71875,-0.0625 0.0937,-1.125 1.09375,0.0937 0.78125,-1.1875 0.5625,-0.0312 1.3125,0.40625 1.28125,0.21875 1.4375,-0.5 0.90625,-0.0937 0.21875,0.53125 0.71875,-0.0625 0.75,0.28125 0.59375,0.3125 1.625,0.0312 1.125,0.25 0.65625,0.84375 0.40625,0.5 0.4375,0.6875 0.0625,0.71875 0.46875,1.0625 0.6875,-0.4375 0.3125,-0.5625 0.65625,-0.8125 0.65625,-0.78125 0.40625,0.6875 0.78125,0.28125 1.03125,-0.46875 0.125,-0.5625 0.65625,-0.78125 -0.71875,0.0625 -0.28125,-1.0625 0.0937,-0.75 0.90625,-0.0937 1.09375,-0.0937 0.65625,-0.625 0.875,-0.625 0.9375,0.28125 0.8125,0.8125 1.03125,-0.46875 0.9375,0.28125 0.5625,-0.0625 0.5,-0.21875 0.53125,-0.40625 0.90625,0.0937 0.96875,-0.0312 0.0312,-0.4375 -0.84375,-0.84375 -0.59375,-2.5625 -0.46875,-1.90625 -0.625,-0.875 -0.65625,0.4375 0.4375,-0.65625 -0.875,-0.40625 0.65625,-0.65625 -0.65625,-0.625 0.875,-0.4375 -0.65625,-0.625 0,-0.65625 1.0625,1.28125 -0.625,-1.90625 -0.21875,0.625 0.4375,-1.6875 -0.4375,-0.28125 0.21875,-1.84375 -0.4375,0 0.875,-3.40625 -0.4375,0 -0.4375,-0.875 -0.40625,1.28125 0.1875,-1.0625 -0.625,0 0.4375,-0.40625 -0.875,-0.65625 0,-1.28125 0.65625,-0.625 -1.28125,0.40625 1.0625,-0.40625 -0.21875,-1.0625 -2.34375,-0.65625 0.65625,-0.40625 -1.28125,-1.5 0.21875,-0.84375 -0.65625,-0.4375 -0.21875,0.4375 0.21875,-0.65625 -1.28125,-0.625 0,0.21875 -1.0625,-1.0625 L 267.225,99.4125 266.38125,99.19375 266.6,98.35 l -0.4375,0.625 0,-0.625 -0.625,-0.21875 0.40625,0.84375 -0.84375,-0.40625 0,0.40625 -0.84375,-0.40625 0,0.40625 -2.78125,-3.8125 -0.625,0.84375 -0.875,-1.28125 0.4375,-0.21875 -0.625,-1.28125 0.40625,-0.40625 -0.625,-2.34375 0.40625,0 0.21875,-1.71875 -0.40625,-1.0625 0,0.65625 -0.4375,-0.21875 -0.4375,-0.84375 0.65625,0.21875 0.21875,-0.21875 -0.65625,-1.0625 0,0.84375 -0.21875,-0.84375 -0.40625,-0.21875 -0.21875,0.625 0.625,1.0625 -0.40625,-0.1875 0.40625,1.0625 -2.96875,-2.15625 -1.0625,-1.6875 -0.21875,0.4375 -0.625,1.0625 0.625,1.46875 0.4375,0.875 -0.4375,-0.4375 -1.28125,-1.5 -1.28125,1.5 0.65625,-1.5 -0.875,0 0.4375,-0.21875 L 252.1,86.00625 251.25625,86.225 252.1,85.7875 l -1.28125,-2.96875 0.4375,-2.34375 -0.21875,0.40625 -0.84375,-0.84375 -0.21875,0.4375 0,-1.9375 -0.84375,0.4375 0.21875,-0.65625 -0.21875,0 0.40625,-1.0625 -0.84375,-0.84375 -0.625,0.4375 0.1875,-0.84375 -1.46875,0 -0.21875,-0.65625 0.4375,-0.21875 -1.0625,-0.625 0.1875,-0.4375 -0.625,-0.625 0.625,-0.21875 -0.40625,-0.4375 0.625,0.21875 0.21875,-0.4375 1.0625,0.875 -1.28125,-2.125 -0.40625,0.1875 0,-0.625 -0.65625,0 -0.21875,-0.84375 -0.625,0 -0.21875,0 0,0.84375 -0.625,-0.21875 -0.875,-0.84375 0.21875,-0.21875 0,-0.21875 -1.0625,-0.625 -1.28125,0.21875 -0.40625,-1.5 -0.65625,0 0.4375,1.0625 -0.875,-0.21875 -1.25,-1.28125 0.84375,0.4375 -1.28125,-2.78125 0,0.875 -1.90625,0.1875 -0.875,-1.90625 -0.1875,0.84375 -0.65625,0 -0.625,-0.84375 -2.15625,-0.84375 -1.25,-1.5 0.40625,-2.34375 -0.84375,0 -1.5,-2.5625 1.0625,-3.625 -0.40625,0 0,-1.6875 -1.28125,-2.34375 0.40625,-1.0625 -1.0625,0.21875 -2.53125,-3.40625 0,-1.0625 0.40625,0 0,-1.5 -0.84375,-1.0625 -0.21875,-2.34375 -0.84375,-0.84375 1.0625,-1.28125 0,-0.21875 -0.65625,0.21875 -0.1875,-1.0625 0.84375,-1.0625 -0.4375,0 -0.40625,-0.875 -1.28125,-0.1875 -0.875,-1.28125 -1.46875,-0.4375 -1.0625,-2.78125 -1.28125,1.0625 -0.84375,-0.40625 -0.4375,1.28125 -1.28125,0.625 -1.0625,-0.84375 -0.625,-2.78125 -1.09375,-1.6875 0.4375,-2.125 -0.625,-2.125 0.1875,-1.9375 -1.25,0.4375 0.625,-1.9375 -1.28125,-0.84375 0,-0.84375 -1.0625,-0.21875 -0.21875,-1.5 1.28125,-1.0625 -1.0625,-0.40625 -0.84375,0.21875 -0.65625,-0.65625 0,-3.1875 -0.84375,-2.5625 -0.625,0 -0.4375,-0.84375 0,0.40625 -0.84375,0.4375 1.0625,-1.71875 -0.21875,-0.1875 -0.21875,-0.21875 z"
         inkscape:connector-curvature="0"
         style="fill:#ffffff" /><path
         id="Fraser-Island"
         d="m 275.536,104.1 0.85,1.278 -1.704,1.917 0.427,0 -0.427,1.49 -0.424,1.065 0.851,1.491 1.917,-5.751 -0.427,-0.852 0,-1.49 -1.063,0.852 z"
         inkscape:connector-curvature="0"
         style="fill:#ffffff" /><path
         id="Mornington-Island"
         d="m 183.536,45.961 0.637,0.213 0.64,-1.278 0.213,0.639 0.85,-0.213 -1.063,-1.064 -1.704,0.638 -1.064,1.065 1.064,0.639 0.427,-0.639 z"
         inkscape:connector-curvature="0"
         style="fill:#ffffff" /></g><path
       id="WA"
       d="m 113.85,156.31875 0,-38.96875 0,0 0,-83.53125 -1.25,0 -0.40625,-0.4375 -0.84375,-0.1875 -1.28125,0.1875 0.84375,0.65625 0.21875,0.84375 -0.84375,-1.0625 0.625,1.0625 -0.21875,-0.21875 -0.21875,0.4375 -0.40625,-0.4375 -0.21875,0.875 -0.4375,-1.09375 -0.40625,0.65625 1.0625,2.96875 -0.4375,0 -0.21875,-1.0625 -1.0625,-1.0625 0,1.71875 -0.625,0.625 0.40625,-0.84375 -0.40625,-0.65625 0.40625,-0.1875 -0.21875,-1.28125 0.65625,-1.5 -0.4375,0 0.875,-0.21875 -0.4375,-0.625 0.4375,-0.21875 -1.5,-1.0625 -0.21875,0.4375 -1.90625,-3 -1.5,-0.84375 -0.21875,-0.84375 -0.625,-0.21875 0.21875,0.625 -0.65625,-0.625 -0.4375,0.40625 0,-0.40625 -0.40625,0.40625 -0.4375,-1.0625 -1.28125,-0.40625 0,0.40625 -0.84375,-0.1875 0.4375,1.0625 0.84375,0.40625 -0.375,-0.03125 -1.125,-0.1875 0.21875,0.65625 -0.4375,0.4375 -0.1875,-0.4375 -0.21875,1.28125 -0.65625,-1.28125 -0.40625,0.21875 0.40625,-1.0625 -1.28125,0.84375 -0.1875,0.4375 0.40625,0.40625 -0.84375,0.4375 -0.21875,-1.0625 -0.40625,0 0.40625,-0.4375 -0.40625,0 0.40625,-0.4375 -0.625,0.4375 -0.65625,-0.21875 0,0.4375 L 94.1,27.85 l 0,0.4375 1.25,0.625 -0.84375,0.65625 0.21875,0.625 -0.625,0.4375 0.40625,0.84375 -0.84375,0 0,1.0625 -0.65625,-0.625 0.21875,-0.84375 -0.84375,0.1875 0,-0.625 -0.625,1.6875 0.1875,-1.90625 0.4375,-0.625 -0.84375,-0.4375 0,2.34375 -0.65625,-0.21875 -0.40625,0.84375 -0.21875,-0.625 -0.4375,0.4375 0.21875,-0.875 -0.84375,0.875 0.40625,0.1875 -1.28125,0.65625 0.65625,0.84375 0.625,0 -0.84375,0.65625 1.28125,0.40625 0.21875,-0.40625 0.40625,0.1875 -0.84375,0.875 1.0625,0.40625 -1.0625,0 -0.40625,-0.625 -0.875,0.625 -0.625,-1.46875 -0.4375,0.1875 0.21875,0.875 -1.28125,0.1875 0.4375,0.21875 -0.21875,0.65625 1.28125,-0.875 -1.28125,1.09375 0.4375,0.40625 1.0625,-0.625 0,0.40625 0.40625,0 -0.625,0.65625 1.28125,1.0625 -1.0625,-0.84375 -0.4375,0.40625 -0.4375,-0.84375 -0.84375,-0.21875 0,-0.4375 -0.625,0.4375 -0.4375,0.84375 -0.21875,-0.40625 -0.21875,0.625 -0.84375,-0.21875 0.21875,0.21875 -0.84375,0.65625 0.40625,0.1875 -0.625,0.21875 0.84375,2.34375 0.21875,-0.375 0,0.15625 0.4375,-0.625 -0.375,0.34375 0.5625,-1 0.65625,-0.40625 -0.4375,0.40625 0.65625,0 -0.875,0.65625 -0.1875,1.5 0.40625,0 -0.84375,0.40625 0.4375,0.21875 -0.4375,0.21875 -0.4375,-1.0625 -0.40625,1.90625 1.46875,-0.21875 0.84375,0.4375 -1.90625,0.21875 -0.40625,-0.4375 -0.4375,0.4375 0.375,0.21875 -1,0.1875 0.625,-0.1875 -0.625,-0.21875 -0.65625,-0.84375 -1.46875,-0.65625 0.625,0.65625 -0.4375,0 0.4375,0.625 -0.84375,-0.625 0,0.1875 -1.0625,-0.40625 0.40625,0 -0.21875,-0.4375 0.4375,0 -0.84375,-0.4375 0,0.4375 -0.65625,-0.21875 0.21875,0.4375 -0.40625,-0.4375 0.40625,0.65625 -0.40625,0.21875 0.84375,0.1875 0.21875,0.4375 -0.65625,-0.21875 0.65625,0.4375 -0.4375,0 -0.21875,0 -0.84375,0 1.0625,0.625 -1.46875,0 0.40625,0.65625 0.21875,-0.4375 0.625,0.21875 -0.84375,0.625 1.5,0.4375 0.40625,1.28125 0.875,-0.4375 0,-0.40625 0.40625,0.1875 -1.0625,1.0625 0.4375,0.4375 -0.65625,-0.21875 1.09375,1.9375 -1.9375,-1.9375 -0.625,0.21875 0.84375,1.5 -0.4375,-0.21875 -0.40625,1.0625 0,1.0625 L 76.63125,50.85 75.975,48.725 75.13125,48.1 l 0,-1.71875 -0.625,0 -0.65625,-0.625 0.21875,-0.875 0.65625,-0.1875 -0.4375,-0.65625 -0.65625,0.21875 -1.25,2.125 0.625,0.65625 -1.71875,-0.21875 -0.1875,0.625 0.40625,0.84375 -0.84375,-0.40625 0,0.40625 -0.84375,0.21875 -0.65625,0.875 0.4375,0.1875 -1.0625,0.875 -0.21875,1.90625 0.625,1.5 -0.40625,1.46875 1.5,0.21875 0,0.84375 -3,2.15625 -0.84375,0.1875 -0.65625,0.875 0.4375,0.625 -1.0625,0.21875 0.21875,0.84375 -1.0625,1.9375 -2.5625,3.1875 -5.96875,2.5625 -1.5,0.1875 -1.46875,0 -0.65625,0.4375 -0.84375,0.625 -0.625,-0.625 -1.9375,-0.4375 0.21875,0.4375 0,0.21875 L 48.50625,69.6 48.1,69.38125 47.88125,69.6 l -1.5,1.90625 -4.46875,0.875 0,-0.4375 -1.6875,1.0625 0.1875,0.4375 -0.625,0 -0.4375,0.84375 -1.0625,0.21875 0,-0.21875 L 36.6,75.13125 35.31875,74.50625 35.1,73.85 l -1.5,0.875 -0.625,-0.21875 -0.4375,-0.21875 0.65625,-1.0625 -0.4375,0 -1.0625,1.28125 0.21875,0.21875 -0.4375,0 -2.125,1.0625 -0.65625,-0.4375 -0.1875,1.0625 -1.71875,0.84375 -0.625,1.28125 L 25.1,78.75625 24.0375,80.475 19.975,81.5375 18.2875,82.6 l -0.21875,1.28125 -0.4375,0.1875 -0.4375,-0.1875 0.21875,0.84375 -0.625,1.0625 0.40625,0.4375 -0.40625,-0.21875 0.21875,0.40625 -0.875,1.0625 -0.40625,-0.625 -1.0625,0.625 0.40625,-1.46875 -0.40625,0.40625 -0.21875,-1.46875 0.84375,-2.5625 -1.5,0.4375 -2.125,5.09375 1.0625,2.78125 -0.40625,1.28125 0.21875,2.53125 -2.15625,3 -0.40625,3.8125 1.6875,2.78125 -0.21875,0.4375 0.4375,1.6875 0.84375,0.65625 2.34375,4.6875 0.65625,0.1875 0.21875,1.0625 -0.65625,0 0.21875,2.34375 -1.0625,1.28125 -1.0625,-1.6875 -0.21875,-2.34375 0,1.0625 -1.0625,0.84375 0.21875,-2.34375 -1.71875,-2.75 -0.625,1.6875 0.40625,0.4375 0,-0.875 0.65625,3.21875 2.125,1.6875 -0.21875,1.9375 -1.28125,0.625 -0.21875,-1.5 -0.1875,1.28125 -0.4375,-2.5625 -0.21875,1.28125 -0.84375,-3.40625 0.21875,2.78125 -0.65625,-0.4375 0,-2.34375 -0.1875,1.71875 -0.875,-0.65625 5.53125,8.09375 1.28125,3.40625 -0.40625,1.0625 0.40625,2.15625 2.34375,2.75 0.65625,1.28125 -0.21875,0.84375 1.90625,2.5625 0.875,3 -0.21875,3.8125 0,0.4375 0.625,3.40625 4.25,8.9375 0.21875,3.1875 1.0625,-0.625 0,0.40625 -1.0625,0.21875 0.21875,1.0625 -0.4375,0.65625 0.21875,1.5 -0.84375,1.6875 0.625,4.90625 -2.3125,2.75 -1.09375,0 -1.25,-0.84375 0,4.46875 0.84375,2.34375 0.21875,-0.40625 1.25,-0.21875 2.34375,1.28125 1.9375,2.96875 2.5625,0.84375 0.1875,-0.625 0.875,0.625 -1.0625,0 1.6875,1.0625 0.65625,-0.625 1.25,0.625 3,-0.40625 1.6875,1.0625 0.4375,-0.875 1.90625,0.65625 0.4375,-0.21875 -1.0625,-0.4375 0.4375,-0.84375 0.40625,-0.21875 -0.21875,0.875 1.71875,0 -0.21875,-0.65625 1.5,-0.21875 0.21875,-1.28125 1.90625,-0.84375 0.21875,-0.84375 1.0625,-0.4375 -0.4375,-0.40625 2.78125,0.84375 0.21875,-0.84375 0.84375,0.21875 0,-0.875 1.0625,0.21875 -0.84375,-0.84375 2.96875,-2.78125 0.625,0 2.78125,0.4375 1.0625,-0.84375 5.34375,-0.65625 2.75,0.84375 1.5,-0.625 0.84375,1.5 1.0625,0 0.4375,-0.875 1.46875,0.4375 0.21875,-0.625 2.78125,-0.21875 0.625,0.40625 0.21875,0.875 1.5,-1.0625 1.0625,0.40625 2.96875,-2.96875 0.875,-3.40625 0.84375,-0.875 3.84375,-1.25 7.65625,-4.5 1.6875,-0.40625 3.21875,0.40625 3.59375,-0.1875 6.84375,-2.125 4.625,-2.3125 z m -26.59375,-112.0625 -1.0625,0.4375 -0.375,-0.40625 0.375,0.1875 1.0625,-0.21875 z M 8.693,113.044 l -1.704,-3.833 0,2.13 1.704,2.768 0,-1.065 z"
       inkscape:connector-curvature="0"
       style="fill:#008000" /><path
       id="VIC"
       d="m 253.1625,203.75625 -0.625,-0.625 0.1875,0 -0.71875,-0.65625 -1.71875,-0.125 -8.1875,-4.0625 0.15625,-1.34375 -0.34375,-1.09375 -0.71875,-1.03125 -0.5625,-1.21875 0.1875,-1.15625 -1.40625,-0.75 -0.90625,0.34375 -0.71875,0.28125 -0.75,0.125 -1.0625,0.34375 -1.46875,0.40625 -1.9375,-0.46875 -1.0625,-0.59375 -0.875,0.3125 -0.65625,0.6875 -1.1875,-0.21875 -1.21875,-0.5625 -0.90625,0.125 -1.4375,-0.71875 -1.84375,0.28125 -0.84375,-0.4375 -0.71875,0.0937 -0.5,0.65625 0.25,1.46875 -1.3125,0.1875 -1.625,-0.6875 -1.28125,-0.9375 -0.375,-1.28125 -1.96875,-1.78125 -1.625,-0.6875 -1.125,-0.0312 -1.4375,-2.0625 -0.625,-2.75 -1,-0.40625 -1.71875,-0.125 -0.96875,-0.21875 -1.0625,0.53125 -0.0312,0.96875 -1.09375,-0.96875 -0.5,-2.03125 L 202.1,180.1 l -2.125,-0.25 -1.75,-0.28125 -1.03125,0.71875 -1.84375,-0.875 -1.125,0.1875 -0.0625,-0.21875 0,28.40625 0.4375,0.0312 2.34375,1.90625 0,1.0625 0.65625,-0.21875 0.625,0.4375 1.28125,-1.5 2.5625,1.28125 1.6875,-0.4375 7.875,4.28125 3.21875,-3.1875 2.53125,-1.71875 1.5,0 0.4375,-1.28125 -1.5,0.4375 -0.84375,-0.65625 1.0625,0 2.75,-2.125 1.28125,2.5625 -1.28125,1.6875 -1.90625,-0.40625 1.90625,1.6875 1.28125,-0.84375 0.65625,0.21875 0.1875,-1.71875 1.5,0 0.4375,1.28125 -0.84375,0.21875 -0.21875,1.28125 1.46875,1.0625 1.5,-0.21875 0.21875,0.4375 -0.625,-0.21875 1.0625,1.90625 0.84375,-0.625 0.84375,0.4375 -0.21875,-0.65625 0.875,1.71875 1.0625,1.0625 0.40625,-2.78125 -1.28125,0.84375 -0.40625,-1.6875 2.125,0 2.53125,-0.84375 4.0625,-4.28125 2.78125,-1.6875 -3.40625,1.46875 1.90625,-1.25 -0.0625,-0.0937 -0.5625,-0.5625 1.46875,0.4375 1.71875,-0.65625 -0.21875,0.4375 9.375,-0.84375 1.90625,-1.71875 z"
       inkscape:connector-curvature="0"
       style="fill:#ffffff" /><g
       id="SA"
       style="fill:#ffffff"><path
         id="SA-mainland"
         d="m 194.1625,207.7875 0,-28.40625 0,-0.0312 0,-45.0625 0,-16.9375 -20.75,0 0,0 -59.5625,0 0,38.96875 0.46875,-0.25 6.59375,-0.65625 1.0625,-0.21875 4.28125,0.4375 2.34375,-1.28125 4.03125,2.125 3,2.34375 1.90625,0 -0.21875,-0.40625 0.4375,-0.21875 1.46875,0 2.5625,2.125 2.5625,0 -0.65625,-0.625 0.4375,-0.21875 0.4375,0.40625 0.40625,-0.625 2.34375,2.34375 -0.625,0.21875 0,1.0625 1.28125,-0.65625 0.84375,0.21875 0.84375,1.71875 -0.625,0.84375 0.21875,-0.65625 -1.0625,0 0.40625,0.875 -0.40625,0.625 0.84375,0.21875 -0.4375,0.625 1.28125,1.28125 -0.40625,-1.28125 0.625,1.28125 0.625,-0.40625 1.28125,0.84375 -0.625,-0.625 1.0625,0.1875 -0.4375,0.4375 1.28125,1.71875 0,1.25 2.34375,2.15625 1.28125,5.75 0.21875,-0.65625 0.21875,0.65625 0.40625,0.1875 -0.84375,0.21875 -0.4375,-0.84375 0.21875,-0.21875 -0.84375,-0.21875 0,-0.40625 -0.65625,1.28125 0.875,-0.4375 2.5625,3.1875 1.0625,-0.625 1.0625,1.28125 0.40625,-2.34375 -1.46875,0.625 0.625,-0.4375 0.21875,-1.6875 0.84375,-0.4375 0.4375,0.4375 0,-1.5 3.1875,-3.625 2.5625,-1.28125 -0.65625,0.21875 0.4375,-0.84375 0.4375,0.4375 1.46875,-0.4375 1.5,-4.25 1.28125,-1.5 0.84375,0.4375 0,-4.28125 1.0625,2.34375 0.21875,1.9375 0.625,0.625 -1.6875,1.5 1.28125,2.34375 -2.5625,2.5625 -0.625,1.90625 -0.4375,0.21875 0.4375,1.28125 -0.65625,1.25 0.4375,-0.1875 0.21875,1.25 -0.4375,2.5625 -0.4375,0.4375 -2.53125,-0.65625 -1.09375,3.21875 2.15625,-0.21875 1.6875,-1.28125 1.5,0.625 0.84375,-0.40625 -0.4375,-0.4375 1.0625,-2.34375 0.21875,-2.125 1.28125,-2.96875 3,5.15625 0.1875,0.375 -0.40625,0.21875 -0.21875,-0.65625 -0.21875,4.6875 -2.34375,2.125 3,0.21875 1.25,-1.0625 1.09375,0.21875 3.1875,2.53125 -3.1875,-2.3125 2.75,2.125 1.8125,2.34375 -1.375,-2.125 1.0625,0.84375 1.28125,2.78125 -0.5625,-0.875 1.625,4.28125 -0.21875,1.0625 -1.0625,1.0625 0.84375,1.28125 -0.40625,0.625 1.6875,2.34375 2.46875,3.3125 0.0937,0.3125 1.28125,1.0625 2.53125,0.1875 z"
         inkscape:connector-curvature="0"
         style="fill:#ffffff" /><path
         id="Kangaroo-Island"
         d="m 172.887,189.499 0.213,-1.066 -1.492,0 0.427,-1.277 -7.028,1.49 -0.426,1.065 1.279,1.491 1.917,-0.213 1.49,-0.426 1.703,0.852 0.852,-0.639 0.213,-0.853 2.769,0 0.425,-0.851 -1.491,-0.639 -0.851,1.066 z"
         inkscape:connector-curvature="0"
         style="fill:#ffffff" /></g><g
       id="TAS"
       style="fill:#ffffff"><path
         id="King-Currie-Island"
         d="m 214.201,220.804 -0.638,1.278 0.213,2.555 0,0.852 0.425,0.426 1.279,-1.278 -0.213,-2.981 -1.066,-0.852 z"
         inkscape:connector-curvature="0"
         style="fill:#ffffff" /><path
         id="Finders-Island"
         d="m 240.397,223.785 0,0.852 0.851,0.852 0.639,1.491 1.703,-0.64 -0.425,-1.064 -0.427,0.426 0.427,-1.065 0.212,-0.426 -0.852,0 -1.704,-2.129 -1.277,1.491 0.853,0.212 z"
         inkscape:connector-curvature="0"
         style="fill:#ffffff" /><path
         id="TAS-mainland"
         d="m 239.118,250.619 -0.425,1.278 0.851,0.212 -0.426,0.427 0.639,0.851 0.64,-0.213 0,-0.852 0.851,1.065 -0.427,-1.917 -1.064,0.213 -0.639,-1.064 z m 4.259,-11.927 -0.425,-1.277 0.638,-1.704 -0.638,-0.638 0.638,-1.705 -1.703,-2.129 -1.066,-0.213 -0.424,1.278 -1.279,-0.639 -1.491,1.703 -1.064,-0.639 -1.065,0.853 -0.852,-0.426 -1.49,0.638 1.064,1.066 -0.214,0.425 -1.277,-1.491 -1.063,0.852 0.21,0.853 -0.424,-1.066 -1.916,0.427 -4.899,-2.983 -1.278,0 -0.427,-1.064 0,0.852 -0.85,-0.213 0,0.425 -2.982,-1.49 0.214,1.703 -0.64,1.278 0.851,3.621 1.492,2.13 -0.427,0.425 2.131,2.769 0,1.916 0.638,-0.639 1.065,1.917 0.425,0 -0.425,1.491 -0.213,-1.277 -1.917,-1.705 0.638,3.834 0.64,0.213 1.065,3.194 1.065,0.426 1.064,2.343 0.64,0 -0.427,-0.213 0.427,-0.853 0.426,1.279 1.704,0 -0.214,0.426 -1.49,-0.426 0,0.638 -0.426,-0.212 0.638,1.704 1.492,-0.64 2.34,0.427 -0.21,-0.639 0.85,1.49 1.277,0 0.853,-1.278 -0.64,-0.639 0.854,0.214 0.213,-0.852 -0.64,-0.213 0.853,-0.426 -0.853,-1.064 0.213,-0.427 0,0.638 0.427,0.427 0.213,-0.638 0,0.638 0.85,0.426 0.214,-2.343 0.64,0.213 0,-1.277 -1.067,-1.704 1.491,1.917 0.426,-0.213 -0.426,1.277 0.853,-0.639 -0.214,-1.064 0.64,-0.213 -1.066,-0.639 1.066,0.212 0.425,1.066 0.852,-0.213 1.065,-1.917 -0.638,-1.065 0.851,-0.426 0.212,-1.703 -0.639,0.212 1.066,-2.129 0.638,0 -0.638,-0.213 0.851,-1.278 -0.425,1.278 1.064,0.425 0,1.279 0.427,-0.64 -0.639,-1.49 0.212,-3.834 z"
         inkscape:connector-curvature="0"
         style="fill:#ffffff" /><path
         id="Cape-Barren"
         d="m 241.248,228.257 2.129,0 0.213,0.64 0.852,-0.64 -0.852,-1.065 -2.342,1.065 z"
         inkscape:connector-curvature="0"
         style="fill:#ffffff" /></g></g></svg>