<?xml version="1.0" encoding="UTF-8" standalone="no"?>
<svg width="640" xmlns="http://www.w3.org/2000/svg" xmlns:xlink="http://www.w3.org/1999/xlink" height="480">
 <defs>
  <linearGradient id="linearGradient17199" y2="-1.3084" x2="11.873" gradientTransform="translate(-331.42 73.067)" y1="-1.3084" x1="11.922">
   <stop id="stop10896" stop-color="#d49c56" offset="0"/>
   <stop id="stop10898" stop-color="#d49c56" stop-opacity=".258" offset="1"/>
  </linearGradient>
  <linearGradient id="linearGradient17205" y2="-2.8527" x2="8.754" gradientTransform="translate(-199.99 52.32)" y1="-2.8527" x1="8.1461">
   <stop id="stop7271" stop-color="#9f5f09" offset="0"/>
   <stop id="stop7273" stop-color="#9f5f09" stop-opacity="0" offset="1"/>
  </linearGradient>
  <linearGradient id="linearGradient17203" y2="-.31018" x2="8.4651" gradientTransform="translate(-331.42 73.067)" y1="-.31018" x1="8.3509">
   <stop id="stop7303" stop-color="#d49c56" offset="0"/>
   <stop id="stop7305" stop-color="#d49c56" stop-opacity="0" offset="1"/>
  </linearGradient>
  <linearGradient id="linearGradient17207" y2="-.26175" x2=".70860" y1="-.26175" x1="-1.9029">
   <stop id="stop14505" stop-color="#fff" offset="0"/>
   <stop id="stop14507" stop-color="#fff" stop-opacity="0" offset="1"/>
  </linearGradient>
  <radialGradient id="radialGradient17201" gradientUnits="userSpaceOnUse" cy="33.695" cx="-165.24" gradientTransform="matrix(.82021 -.019612 .040061 1.6755 202.27 -12.766)" r="21.607">
   <stop id="stop13599" stop-color="#ffeed6" offset="0"/>
   <stop id="stop13601" stop-color="#ffcd8b" offset="1"/>
  </radialGradient>
  <radialGradient id="radialGradient17197" gradientUnits="userSpaceOnUse" cy="72.644" cx="-164.86" gradientTransform="matrix(.11836 .092878 -.24404 0.311 105.77 82.271)" r="15.009">
   <stop id="stop17174" stop-color="#ffeed6" offset="0"/>
   <stop id="stop17176" stop-color="#ffcd8b" offset="1"/>
  </radialGradient>
 </defs>
 <g fill-rule="evenodd">
  <path id="path12688" d="m6.7296 64.882c8.5134 0.081299 18.3-1.8734 20.252-10.268 1.9077-8.2015 0.91295-50.654 31.15-51.645 29.016-0.95116 36.592 23.32 39.086 36.612 8.0163 42.706-2.5234 71.462-63.259 54.153-6.888-3.9768-11.022-4.1641-15.705-10.479 4.1206 0.11258 6.2768 0.38872 6.8952-3.6722-5.4866 0.22398-10.855-0.27739-12.948-9.8054 10.002 1.3823 14.595-2.9453 18.862-9.5029-5.0646 7.9568-11.028 12.421-24.333 4.6075z"/>
  <path id="path12690" d="m27.555 57.189c4.4208-5.9145 5.7857-13.277 6.9232-21.94 3.06 8.4541 3.2996 16.882-2.2399 24.18"/>
  <path id="path12692" fill="#007fff" stroke="#000" d="m2.6004 118.62c2.7927-7.7114 4.0292-18.026 13.643-22.806l44.594-13.541 46.574 12.853c8.1954 2.9422 12.069 14.888 15.987 23.923-2.5522 1.8322-4.752 4.5457-7.7871 5.1707h-105.68c-3.432-1.2735-5.1702-3.5631-7.3304-5.5996z"/>
  <path id="path12694" fill="url(#radialGradient17197)" stroke="url(#linearGradient17199)" d="m47.703 72.396c0.23771 5.7693 0.87025 11.094-1.8326 15.984l6.5159 36.041 14.966-0.2036 11.606-38.383-1.0181-16.494-30.238 3.0544z"/>
  <path id="path12696" fill="url(#radialGradient17201)" stroke="url(#linearGradient17203)" d="m37.11 41.413c0.5819 9.119 0.8372 18.238 2.8796 27.357 0 0 9.2869 10.442 14.47 12.742 5.1835 2.301 6.6343 1.989 11.519-0.071999 4.8844-2.061 16.198-12.095 16.198-12.095 4.8626-19.716 6.5261-38.38-15.118-49.386l-15.694 23.325-0.4319-9.0709-4.0316 6.9112c-2.7285-3.3125-7.9646-2.2118-9.7908 0.2879z"/>

 </g>
</svg>
